HIERARCHY
ROOT Hips
{
	OFFSET 0.000000 87.230942 0.000000
	CHANNELS 6 Xposition Yposition Zposition Xrotation Yrotation Zrotation
	JOINT Pelvis
	{
		OFFSET 0.000000 0.000000 0.000000
		CHANNELS 3 Xrotation Yrotation Zrotation
		JOINT LeftUpLeg
		{
			OFFSET 12.017000 -9.376404 -2.439400
			CHANNELS 3 Xrotation Yrotation Zrotation
			JOINT LeftLeg
			{
				OFFSET -0.007312 -32.846973 2.110600
				CHANNELS 3 Xrotation Yrotation Zrotation
				JOINT LeftFoot
				{
					OFFSET 0.007312 -32.065170 -0.570400
					CHANNELS 3 Xrotation Yrotation Zrotation
					JOINT LeftToeBase
					{
						OFFSET 0.728300 -11.045900 13.180700
						CHANNELS 3 Xrotation Yrotation Zrotation
						End Site
						{
							OFFSET 0.000000 17.212589 0.000000
						}
					}
				}
				JOINT LeftPantLeg
				{
					OFFSET 0.002788 -16.709013 -3.143600
					CHANNELS 3 Xrotation Yrotation Zrotation
					End Site
					{
						OFFSET -0.605125 24.528742 0.000000
					}
				}
			}
			JOINT Left_Butt
			{
				OFFSET -6.630234 1.326584 -3.183700
				CHANNELS 3 Xrotation Yrotation Zrotation
				End Site
				{
					OFFSET -0.498041 20.188049 0.000000
				}
			}
		}
		JOINT RightUpLeg
		{
			OFFSET -11.717000 -9.376404 -2.439400
			CHANNELS 3 Xrotation Yrotation Zrotation
			JOINT RightLeg
			{
				OFFSET -0.003241 -32.846912 2.110600
				CHANNELS 3 Xrotation Yrotation Zrotation
				JOINT RightFoot
				{
					OFFSET 0.003241 -32.065136 -0.570500
					CHANNELS 3 Xrotation Yrotation Zrotation
					JOINT RightToeBase
					{
						OFFSET -0.728300 -11.045901 13.180700
						CHANNELS 3 Xrotation Yrotation Zrotation
						End Site
						{
							OFFSET 0.000000 17.212593 0.000000
						}
					}
				}
				JOINT RightPantLeg
				{
					OFFSET 0.008142 -16.708982 -3.143700
					CHANNELS 3 Xrotation Yrotation Zrotation
					End Site
					{
						OFFSET 0.605088 24.528715 0.000000
					}
				}
			}
			JOINT Right_Butt
			{
				OFFSET 6.630732 1.326584 -3.183700
				CHANNELS 3 Xrotation Yrotation Zrotation
				End Site
				{
					OFFSET 0.498015 20.188240 0.000000
				}
			}
		}
	}
	JOINT Spine
	{
		OFFSET -0.062400 7.848404 3.918300
		CHANNELS 3 Xrotation Yrotation Zrotation
		JOINT Spine1
		{
			OFFSET -0.072800 11.422302 0.713400
			CHANNELS 3 Xrotation Yrotation Zrotation
			JOINT Spine2
			{
				OFFSET -0.083200 13.054001 -1.931600
				CHANNELS 3 Xrotation Yrotation Zrotation
				JOINT Neck
				{
					OFFSET -0.092200 14.121796 -5.138800
					CHANNELS 3 Xrotation Yrotation Zrotation
					JOINT Head
					{
						OFFSET 0.000200 10.447403 -0.842000
						CHANNELS 3 Xrotation Yrotation Zrotation
						JOINT Visor
						{
							OFFSET 0.457100 25.671204 16.550400
							CHANNELS 3 Xrotation Yrotation Zrotation
							End Site
							{
								OFFSET 0.000000 26.061493 0.000000
							}
						}
						JOINT HairMidA
						{
							OFFSET 0.459400 31.585403 8.437400
							CHANNELS 3 Xrotation Yrotation Zrotation
							End Site
							{
								OFFSET 0.000000 26.061493 0.000000
							}
						}
						JOINT HairMidB
						{
							OFFSET 0.464000 33.309204 -8.389700
							CHANNELS 3 Xrotation Yrotation Zrotation
							End Site
							{
								OFFSET 0.000000 26.061493 0.000000
							}
						}
						JOINT HairMidC
						{
							OFFSET 0.466600 27.991196 -17.375099
							CHANNELS 3 Xrotation Yrotation Zrotation
							End Site
							{
								OFFSET 0.000000 26.061493 0.000000
							}
						}
						JOINT HairMidD
						{
							OFFSET 0.467700 17.888092 -21.169500
							CHANNELS 3 Xrotation Yrotation Zrotation
							End Site
							{
								OFFSET 0.000000 26.061493 0.000000
							}
						}
						JOINT HairMidE
						{
							OFFSET 5.325700 3.514603 -14.369699
							CHANNELS 3 Xrotation Yrotation Zrotation
							End Site
							{
								OFFSET 0.000000 26.061493 0.000000
							}
						}
						JOINT HairMidF
						{
							OFFSET -4.394100 3.514603 -14.372400
							CHANNELS 3 Xrotation Yrotation Zrotation
							End Site
							{
								OFFSET 0.000000 26.061493 0.000000
							}
						}
						JOINT HairLeftA
						{
							OFFSET 15.319900 25.746506 2.623300
							CHANNELS 3 Xrotation Yrotation Zrotation
							End Site
							{
								OFFSET 0.000000 26.061493 0.000000
							}
						}
						JOINT HairLeftB
						{
							OFFSET 12.619500 29.289398 -8.731499
							CHANNELS 3 Xrotation Yrotation Zrotation
							End Site
							{
								OFFSET 0.000000 26.061493 0.000000
							}
						}
						JOINT HairLeftC
						{
							OFFSET 15.714800 15.959900 2.909800
							CHANNELS 3 Xrotation Yrotation Zrotation
							End Site
							{
								OFFSET 0.000000 26.061493 0.000000
							}
						}
						JOINT HairLeftD
						{
							OFFSET 16.101700 18.437408 -7.553200
							CHANNELS 3 Xrotation Yrotation Zrotation
							End Site
							{
								OFFSET 0.000000 26.061493 0.000000
							}
						}
						JOINT HairLeftE
						{
							OFFSET 9.731900 17.915009 -18.316799
							CHANNELS 3 Xrotation Yrotation Zrotation
							End Site
							{
								OFFSET 0.000000 26.061493 0.000000
							}
						}
						JOINT HairLeftF
						{
							OFFSET 11.204300 4.953598 -9.668100
							CHANNELS 3 Xrotation Yrotation Zrotation
							End Site
							{
								OFFSET 0.000000 26.061493 0.000000
							}
						}
						JOINT HairRightA
						{
							OFFSET -14.397900 25.746307 2.615100
							CHANNELS 3 Xrotation Yrotation Zrotation
							End Site
							{
								OFFSET 0.000000 26.061493 0.000000
							}
						}
						JOINT HairRightB
						{
							OFFSET -11.691200 29.289200 -8.738199
							CHANNELS 3 Xrotation Yrotation Zrotation
							End Site
							{
								OFFSET 0.000000 26.061493 0.000000
							}
						}
						JOINT HairRightC
						{
							OFFSET -14.792900 15.959702 2.901400
							CHANNELS 3 Xrotation Yrotation Zrotation
							End Site
							{
								OFFSET 0.000000 26.061493 0.000000
							}
						}
						JOINT HairRightD
						{
							OFFSET -15.174000 18.437195 -7.561900
							CHANNELS 3 Xrotation Yrotation Zrotation
							End Site
							{
								OFFSET 0.000000 26.061493 0.000000
							}
						}
						JOINT HairRightE
						{
							OFFSET -8.798200 17.914902 -18.322001
							CHANNELS 3 Xrotation Yrotation Zrotation
							End Site
							{
								OFFSET 0.000000 26.061493 0.000000
							}
						}
						JOINT HairRightF
						{
							OFFSET -10.275200 4.953506 -9.674099
							CHANNELS 3 Xrotation Yrotation Zrotation
							End Site
							{
								OFFSET 0.000000 26.061493 0.000000
							}
						}
					}
				}
				JOINT LeftShoulder
				{
					OFFSET 5.133500 7.341202 -1.867600
					CHANNELS 3 Xrotation Yrotation Zrotation
					JOINT LeftArm
					{
						OFFSET 8.072663 0.936867 -2.176600
						CHANNELS 3 Xrotation Yrotation Zrotation
						JOINT LeftForeArm
						{
							OFFSET 31.271999 0.000000 0.000000
							CHANNELS 3 Xrotation Yrotation Zrotation
							JOINT LeftHand
							{
								OFFSET 31.771030 0.000000 0.000000
								CHANNELS 3 Xrotation Yrotation Zrotation
								JOINT LeftHandThumb1
								{
									OFFSET 2.886520 -2.557846 4.416640
									CHANNELS 3 Xrotation Yrotation Zrotation
									JOINT LeftHandThumb2
									{
										OFFSET 2.371025 -1.368912 1.368911
										CHANNELS 3 Xrotation Yrotation Zrotation
										JOINT LeftHandThumb3
										{
											OFFSET 2.243378 -1.295212 1.295213
											CHANNELS 3 Xrotation Yrotation Zrotation
											End Site
											{
												OFFSET -0.332611 2.876945 0.020015
											}
										}
									}
								}
								JOINT LeftHandIndex1
								{
									OFFSET 8.568985 -0.641945 3.119977
									CHANNELS 3 Xrotation Yrotation Zrotation
									JOINT LeftHandIndex2
									{
										OFFSET 3.348503 0.000000 0.000000
										CHANNELS 3 Xrotation Yrotation Zrotation
										JOINT LeftHandIndex3
										{
											OFFSET 3.314552 0.000000 0.000000
											CHANNELS 3 Xrotation Yrotation Zrotation
											End Site
											{
												OFFSET -1.032898 3.075485 0.678796
											}
										}
									}
								}
								JOINT LeftHandMiddle1
								{
									OFFSET 8.124603 0.000000 0.000000
									CHANNELS 3 Xrotation Yrotation Zrotation
									JOINT LeftHandMiddle2
									{
										OFFSET 4.166275 0.000000 0.000000
										CHANNELS 3 Xrotation Yrotation Zrotation
										JOINT LeftHandMiddle3
										{
											OFFSET 3.018135 0.000000 0.000000
											CHANNELS 3 Xrotation Yrotation Zrotation
											End Site
											{
												OFFSET -1.032700 2.767982 0.617226
											}
										}
									}
								}
								JOINT LeftHandRing1
								{
									OFFSET 8.571686 -0.031357 -2.884048
									CHANNELS 3 Xrotation Yrotation Zrotation
									JOINT LeftHandRing2
									{
										OFFSET 3.671181 0.000000 0.000000
										CHANNELS 3 Xrotation Yrotation Zrotation
										JOINT LeftHandRing3
										{
											OFFSET 2.728851 0.000000 0.000000
											CHANNELS 3 Xrotation Yrotation Zrotation
											End Site
											{
												OFFSET -0.815796 2.539223 0.577389
											}
										}
									}
								}
								JOINT LeftHandPinky1
								{
									OFFSET 7.854515 -0.675232 -5.213020
									CHANNELS 3 Xrotation Yrotation Zrotation
									JOINT LeftHandPinky2
									{
										OFFSET 3.068596 0.000000 0.000000
										CHANNELS 3 Xrotation Yrotation Zrotation
										JOINT LeftHandPinky3
										{
											OFFSET 2.396042 0.000000 0.000000
											CHANNELS 3 Xrotation Yrotation Zrotation
											End Site
											{
												OFFSET -0.524597 2.267998 0.567429
											}
										}
									}
								}
							}
							JOINT LeftSleeve
							{
								OFFSET 19.684509 -0.200119 0.476146
								CHANNELS 3 Xrotation Yrotation Zrotation
								End Site
								{
									OFFSET -0.031017 25.731133 -0.002868
								}
							}
						}
					}
				}
				JOINT RightShoulder
				{
					OFFSET -4.395900 7.341202 -1.870200
					CHANNELS 3 Xrotation Yrotation Zrotation
					JOINT RightArm
					{
						OFFSET -8.071453 0.936867 -2.181100
						CHANNELS 3 Xrotation Yrotation Zrotation
						JOINT RightForeArm
						{
							OFFSET -31.272011 0.000000 0.000000
							CHANNELS 3 Xrotation Yrotation Zrotation
							JOINT RightHand
							{
								OFFSET -31.771019 0.000000 0.000000
								CHANNELS 3 Xrotation Yrotation Zrotation
								JOINT RightHandThumb1
								{
									OFFSET -2.886520 -2.557808 4.416626
									CHANNELS 3 Xrotation Yrotation Zrotation
									JOINT RightHandThumb2
									{
										OFFSET -2.371056 -1.368927 1.368928
										CHANNELS 3 Xrotation Yrotation Zrotation
										JOINT RightHandThumb3
										{
											OFFSET -2.243362 -1.295204 1.295206
											CHANNELS 3 Xrotation Yrotation Zrotation
											End Site
											{
												OFFSET 0.332642 2.876938 0.020047
											}
										}
									}
								}
								JOINT RightHandIndex1
								{
									OFFSET -8.568993 -0.641953 3.120017
									CHANNELS 3 Xrotation Yrotation Zrotation
									JOINT RightHandIndex2
									{
										OFFSET -3.348518 0.000000 0.000000
										CHANNELS 3 Xrotation Yrotation Zrotation
										JOINT RightHandIndex3
										{
											OFFSET -3.314552 0.000000 0.000000
											CHANNELS 3 Xrotation Yrotation Zrotation
											End Site
											{
												OFFSET 1.032898 3.075478 0.678804
											}
										}
									}
								}
								JOINT RightHandMiddle1
								{
									OFFSET -8.124588 0.000000 0.000000
									CHANNELS 3 Xrotation Yrotation Zrotation
									JOINT RightHandMiddle2
									{
										OFFSET -4.166275 0.000000 0.000000
										CHANNELS 3 Xrotation Yrotation Zrotation
										JOINT RightHandMiddle3
										{
											OFFSET -3.018097 0.000000 0.000000
											CHANNELS 3 Xrotation Yrotation Zrotation
											End Site
											{
												OFFSET 1.032700 2.767937 0.617197
											}
										}
									}
								}
								JOINT RightHandRing1
								{
									OFFSET -8.571747 -0.031349 -2.884061
									CHANNELS 3 Xrotation Yrotation Zrotation
									JOINT RightHandRing2
									{
										OFFSET -3.671204 0.000000 0.000000
										CHANNELS 3 Xrotation Yrotation Zrotation
										JOINT RightHandRing3
										{
											OFFSET -2.728874 0.000000 0.000000
											CHANNELS 3 Xrotation Yrotation Zrotation
											End Site
											{
												OFFSET 0.815804 2.539261 0.577413
											}
										}
									}
								}
								JOINT RightHandPinky1
								{
									OFFSET -7.854561 -0.675247 -5.212970
									CHANNELS 3 Xrotation Yrotation Zrotation
									JOINT RightHandPinky2
									{
										OFFSET -3.068550 0.000000 0.000000
										CHANNELS 3 Xrotation Yrotation Zrotation
										JOINT RightHandPinky3
										{
											OFFSET -2.395981 0.000000 0.000000
											CHANNELS 3 Xrotation Yrotation Zrotation
											End Site
											{
												OFFSET 0.524605 2.267952 0.567413
											}
										}
									}
								}
							}
							JOINT RightSleeve
							{
								OFFSET -19.684753 -0.200165 0.476065
								CHANNELS 3 Xrotation Yrotation Zrotation
								End Site
								{
									OFFSET 0.031342 25.731255 -0.002917
								}
							}
						}
					}
				}
				JOINT Hood
				{
					OFFSET 0.369700 14.447800 -5.317800
					CHANNELS 3 Xrotation Yrotation Zrotation
					JOINT Hood1
					{
						OFFSET 0.001700 -5.553802 -5.895100
						CHANNELS 3 Xrotation Yrotation Zrotation
						JOINT Hood2
						{
							OFFSET -0.000200 -8.380501 0.763600
							CHANNELS 3 Xrotation Yrotation Zrotation
							End Site
							{
								OFFSET 0.000000 8.415215 0.000000
							}
						}
					}
				}
				JOINT Left_Breast
				{
					OFFSET 5.682500 3.120102 3.188800
					CHANNELS 3 Xrotation Yrotation Zrotation
					End Site
					{
						OFFSET 0.000000 10.528564 0.000000
					}
				}
				JOINT Right_Breast
				{
					OFFSET -4.947600 3.120102 3.185900
					CHANNELS 3 Xrotation Yrotation Zrotation
					End Site
					{
						OFFSET 0.000000 10.528564 0.000000
					}
				}
				JOINT Whistle
				{
					OFFSET 0.368200 11.471298 0.095400
					CHANNELS 3 Xrotation Yrotation Zrotation
					JOINT Whistle1
					{
						OFFSET -0.002000 -6.349899 7.479800
						CHANNELS 3 Xrotation Yrotation Zrotation
						JOINT Whistle2
						{
							OFFSET -0.001300 -8.217598 4.717600
							CHANNELS 3 Xrotation Yrotation Zrotation
							End Site
							{
								OFFSET 0.000000 9.475479 0.000000
							}
						}
					}
				}
			}
		}
		JOINT Belly
		{
			OFFSET 0.212400 1.593002 3.163700
			CHANNELS 3 Xrotation Yrotation Zrotation
			End Site
			{
				OFFSET 0.000000 7.496635 0.000000
			}
		}
	}
	JOINT FitGrandmaFacialAnim_Joint
	{
		OFFSET 1.150000 -86.211197 -1.220100
		CHANNELS 3 Xrotation Yrotation Zrotation
		End Site
		{
			OFFSET 0.000000 31.666618 0.000000
		}
	}
}
MOTION
Frames: 4
Frame Time: 0.016667
-20.842751 73.372437 -5.437386 35.991484 4.196276 -3.884395 0.000001 0.000000 0.000000 -54.680128 -19.269690 25.636342 32.525784 8.300982 -3.087214 -1.816230 8.939183 -28.370354 -0.000000 -0.000002 0.000000 -0.000000 0.000000 -0.000000 -0.000002 0.000000 0.000001 -62.306734 -1.502574 -18.110171 53.035948 -5.382102 -1.131888 -22.429021 -4.598556 19.522094 0.000000 -0.000001 0.000000 0.000002 0.000000 -0.000001 0.000002 0.000000 -0.000000 11.168123 1.929546 0.766497 9.606818 1.909023 0.899772 9.603348 2.011868 0.811203 -0.524628 -2.137136 -0.972091 -33.188251 -13.301680 4.013187 0.000000 -0.000000 0.000000 0.000000 -0.000000 0.000000 0.000000 -0.000000 0.000000 0.000000 -0.000000 0.000000 0.000000 -0.000000 0.000000 0.000000 -0.000000 0.000000 0.000000 -0.000000 0.000000 0.000000 -0.000000 0.000000 0.000000 -0.000000 0.000000 0.000000 -0.000000 0.000000 0.000000 -0.000000 0.000000 0.000000 -0.000000 0.000000 0.000000 -0.000000 0.000000 0.000000 -0.000000 0.000000 0.000000 -0.000000 0.000000 0.000000 -0.000000 0.000000 0.000000 -0.000000 0.000000 0.000000 -0.000000 0.000000 0.000000 -0.000000 0.000000 1.414447 -22.723531 -8.784364 11.762089 -10.125577 -53.585375 -0.000038 -69.152223 -0.000042 9.634476 -7.078045 51.536455 -3.236117 1.418149 8.402902 5.654936 12.269276 1.647795 0.000000 -0.000000 -0.000004 -2.869250 -11.236254 -14.304753 0.189430 1.607175 -13.444141 0.000002 0.000003 -0.000002 -1.015594 -2.322591 -17.138014 0.372014 2.236733 -18.883784 0.000003 0.000000 -0.000001 0.425064 2.386063 -20.199031 0.525201 2.642140 -22.481655 -0.000003 -0.000000 0.000000 2.908271 9.324895 -19.277229 0.542565 -1.387856 -23.214338 -0.000000 0.000000 0.000000 -0.000001 0.000000 0.000002 3.076684 26.719377 7.630341 -0.858360 44.777897 17.984933 0.000006 15.067930 0.000010 -12.088576 -18.720836 2.445795 11.401657 -6.367856 -1.590892 -8.836356 -28.068840 -6.744438 -0.000000 0.000002 -0.000000 1.584818 -10.189933 8.836258 0.110131 -1.235168 10.190460 -0.000001 0.000002 -0.000000 0.067141 -0.965882 7.951950 0.067140 -0.965880 7.951949 -0.000000 -0.000001 -0.000004 -0.761381 3.643559 10.438914 0.104650 -1.204189 9.932218 0.000001 -0.000003 0.000001 -2.759437 8.024659 17.655262 0.308088 -2.050662 17.086509 -0.000001 0.000000 0.000001 0.000000 0.000001 0.000000 -0.000000 -0.000000 0.000000 -0.000000 -0.000000 0.000000 -0.000000 -0.000000 0.000000 -0.000000 -0.000000 0.000000 -0.000000 -0.000000 0.000000 -0.000000 -0.000000 0.000001 -0.000000 -0.000000 0.000000 -0.000000 -0.000000 0.000000 0.000001 0.000000 0.000000 0.000001 0.000000 0.000000 
-20.527054 72.889603 -5.441051 37.455979 4.085444 -3.782490 0.000001 0.000000 0.000000 -57.916903 -18.322882 25.257650 34.556283 8.339724 -3.211215 -2.594972 7.662855 -27.921535 0.000000 0.000000 -0.000000 -0.000000 -0.000000 0.000000 0.000001 0.000001 0.000001 -64.356508 -1.193565 -18.482429 53.751126 -5.140209 -1.444205 -22.524680 -4.706306 19.928518 -0.000000 -0.000000 0.000000 -0.000001 0.000001 0.000001 0.000001 -0.000000 -0.000000 11.357887 2.058800 0.776285 9.817426 2.025246 0.983093 9.811143 2.152150 0.886992 -0.715580 -2.246421 -1.135934 -34.116614 -13.747783 3.784628 -0.000000 0.000000 -0.000000 -0.000000 0.000000 -0.000000 -0.000000 0.000000 -0.000000 -0.000000 0.000000 -0.000000 -0.000000 0.000000 -0.000000 -0.000000 0.000000 -0.000000 -0.000000 0.000000 -0.000000 -0.000000 0.000000 -0.000000 -0.000000 0.000000 -0.000000 -0.000000 0.000000 -0.000000 -0.000000 0.000000 -0.000000 -0.000000 0.000000 -0.000000 -0.000000 0.000000 -0.000000 -0.000000 0.000000 -0.000000 -0.000000 0.000000 -0.000000 -0.000000 0.000000 -0.000000 -0.000000 0.000000 -0.000000 -0.000000 0.000000 -0.000000 -0.000000 0.000000 -0.000000 1.416209 -22.973077 -8.880206 11.192765 -9.120340 -53.018773 -0.000025 -70.505843 0.000005 10.038164 -7.077217 52.367112 -3.374863 1.231312 8.584198 5.793792 12.624829 1.716462 0.000001 -0.000000 -0.000001 -2.849382 -11.834716 -13.679880 0.167888 1.514194 -12.652664 -0.000002 -0.000003 0.000002 -1.107511 -2.724910 -16.827237 0.358594 2.197128 -18.536782 -0.000003 0.000000 -0.000001 0.422356 2.378709 -20.134016 0.523078 2.637015 -22.435573 0.000002 -0.000001 0.000002 2.892596 9.303087 -19.220765 0.541223 -1.391020 -23.185707 -0.000002 0.000000 0.000001 0.000002 -0.000001 0.000000 3.187579 27.214288 7.729330 -2.835469 44.048409 16.782883 0.000004 15.523307 0.000016 -11.553899 -18.245691 1.205166 11.420375 -6.347019 -1.613745 -8.885718 -28.126222 -6.728614 -0.000000 0.000001 0.000001 1.580420 -10.229614 8.766660 0.108807 -1.227716 10.128419 -0.000001 -0.000003 0.000001 0.064978 -0.950247 7.822443 0.064952 -0.950270 7.822432 0.000000 -0.000001 -0.000000 -0.755248 3.690489 10.276207 0.101189 -1.184322 9.766749 0.000003 -0.000001 0.000001 -2.755525 8.099310 17.520907 0.303159 -2.034564 16.948054 -0.000001 -0.000001 0.000003 0.000000 0.000000 -0.000000 -0.000002 -0.000001 -0.000000 -0.000002 -0.000001 -0.000000 -0.000002 -0.000001 -0.000000 -0.000002 -0.000001 -0.000000 -0.000002 -0.000001 -0.000000 -0.000002 -0.000001 -0.000000 0.000001 -0.000001 -0.000000 0.000001 -0.000001 -0.000000 -0.000001 -0.000000 0.000000 0.000001 0.000000 0.000000 
-20.173840 72.413727 -5.389603 39.064533 4.205635 -3.568894 -0.000001 0.000000 0.000000 -61.231539 -17.327259 24.681280 36.303203 8.397692 -3.374039 -3.161427 6.163665 -27.391511 -0.000000 0.000000 -0.000000 -0.000000 0.000000 0.000001 -0.000001 0.000000 -0.000001 -66.478791 -0.878846 -19.235179 54.482121 -4.800727 -1.657680 -22.685707 -4.823748 20.318133 -0.000000 -0.000000 0.000000 0.000001 0.000000 0.000002 0.000003 -0.000000 -0.000001 11.447510 2.170006 0.765229 9.969251 2.124026 1.135355 9.956446 2.298935 1.031304 -0.838440 -2.418142 -1.228874 -35.049027 -14.115565 3.169136 -0.000001 0.000001 -0.000000 -0.000001 0.000001 -0.000000 -0.000001 0.000001 -0.000000 -0.000001 0.000001 -0.000000 -0.000001 0.000001 -0.000000 -0.000001 0.000001 -0.000000 -0.000001 0.000001 -0.000000 -0.000001 0.000001 -0.000000 -0.000001 0.000001 -0.000000 -0.000001 0.000001 -0.000000 -0.000001 0.000001 -0.000000 -0.000001 0.000001 -0.000000 -0.000001 0.000001 -0.000000 -0.000001 0.000001 -0.000000 -0.000001 0.000001 -0.000000 -0.000001 0.000001 -0.000000 -0.000001 0.000001 -0.000000 -0.000001 0.000001 -0.000000 -0.000001 0.000001 -0.000000 1.450537 -23.720936 -8.828586 11.826651 -9.065745 -52.805613 -0.000044 -71.719896 -0.000010 10.805697 -6.917956 53.874917 -3.512181 1.046283 8.763073 5.931039 12.976938 1.783638 0.000000 -0.000000 -0.000001 -2.817151 -12.428217 -13.059484 0.147811 1.421848 -11.869181 0.000004 -0.000001 0.000000 -1.194136 -3.124440 -16.519647 0.345545 2.157825 -18.193269 -0.000004 0.000000 -0.000001 0.419691 2.371445 -20.069642 0.520985 2.631938 -22.389966 0.000002 -0.000002 0.000004 2.877084 9.281350 -19.164876 0.539861 -1.394177 -23.157420 0.000002 -0.000001 0.000003 0.000001 0.000001 0.000002 3.294675 27.536633 7.886912 -5.270264 43.242884 15.996334 -0.000021 15.853540 0.000011 -11.364513 -17.432040 -0.170955 11.427809 -6.338787 -1.622799 -8.905281 -28.148955 -6.722364 0.000001 0.000004 -0.000001 1.578674 -10.245329 8.739121 0.108273 -1.224770 10.103828 0.000000 -0.000002 0.000003 0.064126 -0.944078 7.771180 0.064131 -0.944063 7.771196 -0.000000 0.000000 -0.000003 -0.752778 3.709060 10.211783 0.099842 -1.176458 9.701250 -0.000001 -0.000002 0.000001 -2.753889 8.128852 17.467703 0.301208 -2.028170 16.893273 0.000001 0.000001 -0.000000 -0.000001 0.000001 -0.000000 -0.000000 0.000000 -0.000000 -0.000000 0.000000 -0.000000 -0.000000 0.000000 -0.000000 -0.000000 0.000000 -0.000000 -0.000000 0.000000 -0.000000 -0.000000 0.000000 0.000000 0.000002 0.000001 0.000000 0.000002 0.000001 0.000000 0.000004 -0.000001 0.000000 -0.000001 0.000000 0.000000 
-19.777767 71.913589 -5.314480 40.693885 4.452109 -3.331755 -0.000003 0.000000 -0.000000 -64.631273 -16.095993 23.969620 38.020323 8.485252 -3.411109 -3.769752 4.564792 -26.801266 0.000000 -0.000001 -0.000000 -0.000000 0.000001 0.000001 -0.000002 -0.000001 0.000003 -68.617610 -0.589524 -20.197966 55.282547 -4.369384 -1.841388 -22.912563 -4.957449 20.712202 -0.000000 -0.000001 -0.000000 0.000002 0.000001 0.000001 0.000002 -0.000000 0.000000 11.493026 2.231469 0.778912 10.064950 2.170637 1.237803 10.048253 2.372606 1.130298 -0.902471 -2.527068 -1.383377 -35.906571 -14.329187 2.536113 0.000002 -0.000000 0.000000 0.000002 -0.000000 0.000000 0.000002 -0.000000 0.000000 0.000002 -0.000000 0.000000 0.000002 -0.000000 0.000000 0.000002 -0.000000 0.000000 0.000002 -0.000000 0.000000 0.000002 -0.000000 0.000000 0.000002 -0.000000 0.000000 0.000002 -0.000000 0.000000 0.000002 -0.000000 0.000000 0.000002 -0.000000 0.000000 0.000002 -0.000000 0.000000 0.000002 -0.000000 0.000000 0.000002 -0.000000 0.000000 0.000002 -0.000000 0.000000 0.000002 -0.000000 0.000000 0.000002 -0.000000 0.000000 0.000002 -0.000000 0.000000 1.473630 -24.423862 -8.886952 12.773709 -9.396244 -52.694182 -0.000022 -72.757477 -0.000009 11.913193 -6.670317 56.007975 -3.647170 0.864208 8.938395 6.065772 13.323443 1.848958 -0.000002 0.000003 -0.000000 -2.773156 -13.012707 -12.447470 0.129307 1.330781 -11.098664 -0.000001 0.000002 -0.000003 -1.275081 -3.518491 -16.217280 0.332930 2.119114 -17.855388 -0.000003 -0.000000 -0.000003 0.417084 2.364279 -20.006345 0.518927 2.626939 -22.345099 -0.000003 0.000001 -0.000001 2.861834 9.259796 -19.109957 0.538543 -1.397258 -23.129549 -0.000003 0.000000 0.000001 0.000004 0.000001 0.000001 3.339813 27.785959 7.894900 -7.494333 42.668998 15.410821 -0.000020 16.135765 0.000018 -11.314866 -17.019380 -1.634195 11.432227 -6.333864 -1.628213 -8.916917 -28.162523 -6.718618 0.000001 0.000001 -0.000001 1.577619 -10.254712 8.722667 0.107961 -1.223002 10.089150 0.000002 -0.000001 0.000003 0.063624 -0.940384 7.740546 0.063617 -0.940359 7.740582 -0.000001 0.000001 -0.000005 -0.751262 3.720144 10.173317 0.099035 -1.171758 9.662122 0.000002 -0.000002 0.000001 -2.752874 8.146506 17.435945 0.300069 -2.024373 16.860517 -0.000001 -0.000001 0.000002 0.000001 -0.000001 -0.000000 -0.000001 -0.000001 -0.000000 -0.000001 -0.000001 -0.000000 -0.000001 -0.000001 -0.000000 -0.000001 -0.000001 -0.000000 -0.000001 -0.000001 -0.000000 -0.000001 -0.000001 -0.000000 0.000000 -0.000001 -0.000000 0.000000 -0.000001 -0.000000 -0.000001 0.000001 -0.000000 -0.000003 0.000000 -0.000000 
